<svg width="12" height="13" viewBox="0 0 12 13" fill="none" xmlns="http://www.w3.org/2000/svg">
<path fill-rule="evenodd" clip-rule="evenodd" d="M0 0.75C0 0.335786 0.335786 0 0.75 0H11.25C11.6642 0 12 0.335786 12 0.75C12 1.16421 11.6642 1.5 11.25 1.5H0.75C0.335786 1.5 0 1.16421 0 0.75ZM0 6.08333C0 5.66912 0.335786 5.33333 0.75 5.33333H11.25C11.6642 5.33333 12 5.66912 12 6.08333C12 6.49755 11.6642 6.83333 11.25 6.83333H0.75C0.335786 6.83333 0 6.49755 0 6.08333ZM0.75 10.6667C0.335786 10.6667 0 11.0025 0 11.4167C0 11.8309 0.335786 12.1667 0.75 12.1667H11.25C11.6642 12.1667 12 11.8309 12 11.4167C12 11.0025 11.6642 10.6667 11.25 10.6667H0.75Z" fill="#141619"/>
</svg>
