<svg width="18" height="14" viewBox="0 0 18 14" fill="none" xmlns="http://www.w3.org/2000/svg">
<path fill-rule="evenodd" clip-rule="evenodd" d="M14.6842 0H3.31579C1.48453 0 0 1.60522 0 3.58537V10.4146C0 12.3948 1.48453 14 3.31579 14H14.6842C16.5155 14 18 12.3948 18 10.4146V3.58537C18 1.60522 16.5155 0 14.6842 0ZM14.7039 1.53659C15.7395 1.53659 16.5789 2.46 16.5789 3.59909V10.4741C16.5789 11.6132 15.7395 12.5366 14.7039 12.5366H3.45395C2.41841 12.5366 1.57895 11.6132 1.57895 10.4741V3.59909C1.57895 2.46 2.41841 1.53659 3.45395 1.53659H14.7039ZM14.0253 11.0807C14.346 11.3428 14.8185 11.2953 15.0807 10.9746C15.319 10.6831 15.3014 10.2661 15.0553 9.99573L14.9747 9.91929L11.7092 7.24999L14.9747 4.58068L15.0553 4.50425C15.3014 4.23388 15.319 3.81688 15.0807 3.52534C14.8185 3.20463 14.346 3.15717 14.0253 3.41932L8.995 7.53L3.97519 3.41975L3.88429 3.35582C3.57055 3.16812 3.15833 3.23348 2.91975 3.52481C2.65731 3.84527 2.70434 4.31781 3.02481 4.58025L6.28479 7.24999L3.02481 9.91973C2.70434 10.1822 2.65731 10.6547 2.91975 10.9752C3.15833 11.2665 3.57055 11.3319 3.88429 11.1442L3.97519 11.0802L7.46881 8.21963L8.5197 9.08025L8.61591 9.14727C8.88267 9.30367 9.22389 9.2815 9.46956 9.08068L10.5236 8.2191L14.0253 11.0807Z" fill="#141619"/>
</svg>
