<svg width="1024" height="1024" viewBox="0 0 1024 1024" fill="none" xmlns="http://www.w3.org/2000/svg">
<path d="M0 500C0 264.298 0 146.447 73.2233 73.2233C146.447 0 264.298 0 500 0H524C759.702 0 877.553 0 950.777 73.2233C1024 146.447 1024 264.298 1024 500V524C1024 759.702 1024 877.553 950.777 950.777C877.553 1024 759.702 1024 524 1024H500C264.298 1024 146.447 1024 73.2233 950.777C0 877.553 0 759.702 0 524V500Z" fill="white"/>
<path fill-rule="evenodd" clip-rule="evenodd" d="M382.115 410V581H496.16V548.003H414.136V511.998H470.126V479.002H414.136V442.997H496.16V410H382.115ZM667.229 410V442.997H711.251V548.003H667.229V581H787.611V548.003H743.576V442.997H787.611V410H667.229ZM172.144 480.503H128.971V442.997H171.041C183.048 442.997 188.934 450.356 188.934 461.75C188.934 473.15 184.169 480.496 172.156 480.496L172.144 480.503ZM171.035 548.003H128.965V510.504H172.15C184.163 510.504 188.927 517.857 188.927 529.25C188.927 540.65 183.041 547.997 171.028 547.997L171.035 548.003ZM217.382 464.752V458.754C217.382 431.749 196.917 410 171.51 410H97V581H171.51C196.91 581 217.382 559.251 217.382 532.252V526.255C217.408 520.391 216.138 514.593 213.662 509.277C211.187 503.96 207.568 499.256 203.063 495.5C207.568 491.745 211.188 487.04 213.664 481.724C216.139 476.407 217.409 470.609 217.382 464.745V464.752ZM852.991 410L892.59 514.728C893.084 516.033 894.966 515.665 894.966 514.272V410H927V581H886.957L847.377 476.335C846.876 475.018 844.976 475.385 844.976 476.798V581H812.954V410H852.991ZM607.076 476.278L596.293 515.893C592.193 530.96 571.202 530.954 567.109 515.893L556.3 476.171C555.927 474.803 553.944 475.075 553.944 476.5V581H521.504V410H561.306L580.523 479.717C580.858 480.933 582.55 480.933 582.879 479.717L602.096 410H641.885V581H609.458V476.608C609.458 475.164 607.45 474.891 607.076 476.278ZM278.029 515.862L295.402 442.458C295.706 441.192 297.467 441.192 297.765 442.458L315.138 515.862H278.029ZM329.121 436.404C327.494 428.898 323.322 422.186 317.311 417.404C311.203 412.47 304.297 410 296.593 410C288.711 410 281.754 412.47 275.729 417.404C269.71 422.337 265.813 428.671 264.045 436.404L230.053 581H262.594L270.312 548.428H322.855L330.572 581H363.107L329.121 436.41V436.404Z" fill="#3AC5C9"/>
</svg>
